<?xml version="1.0" standalone="no"?><!DOCTYPE svg PUBLIC "-//W3C//DTD SVG 1.1//EN" "http://www.w3.org/Graphics/SVG/1.1/DTD/svg11.dtd"><svg class="icon" width="200px" height="200.00px" viewBox="0 0 1024 1024" version="1.1" xmlns="http://www.w3.org/2000/svg"><path fill="#333333" d="M512.415 112c11.045 0 20 8.954 20 20v33.788c128.72 10.19 230 117.873 230 249.212l-0.001 177.544 76.798 61.3c43.165 34.453 50.227 97.374 15.774 140.539A100 100 0 0 1 776.829 832l-152.667 0.002C608.345 878.527 564.289 912 512.415 912s-95.93-33.473-111.748-79.998L248 832c-55.228 0-100-44.772-100-100a100 100 0 0 1 37.617-78.156l76.797-61.299V415c0-131.339 101.28-239.022 230-249.212V132c0-11.046 8.955-20 20-20z m66.976 722H445.438l0.036 0.06c13.424 22.384 37.758 37.477 65.65 37.93l1.29 0.01c28.148 0 52.813-14.91 66.53-37.261l0.447-0.739z m-66.976-629c-114.82 0-208.118 92.15-209.972 206.527l-0.028 3.473-0.001 196.797-91.844 73.31A60 60 0 0 0 188 732c0 32.806 26.328 59.462 59.008 59.992L248 792h528.83a60 60 0 0 0 46.893-22.57c20.465-25.64 16.517-62.898-8.694-83.699l-0.77-0.625-91.845-73.31V415c0-115.98-94.02-210-210-210z"  /></svg>