<?xml version="1.0" standalone="no"?><!DOCTYPE svg PUBLIC "-//W3C//DTD SVG 1.1//EN" "http://www.w3.org/Graphics/SVG/1.1/DTD/svg11.dtd"><svg class="icon" width="200px" height="200.00px" viewBox="0 0 1024 1024" version="1.1" xmlns="http://www.w3.org/2000/svg"><path fill="#333333" d="M426 112c33.137 0 60 26.863 60 60v254c0 33.137-26.863 60-60 60H172c-33.137 0-60-26.863-60-60V172c0-33.137 26.863-60 60-60h254z m0.344 40H172c-10.93 0-19.813 8.769-20 19.656V426c0 10.93 8.769 19.813 19.656 20H426c10.93 0 19.813-8.769 20-19.656V172c0-10.93-8.769-19.813-19.656-20zM299 205c11.046 0 20 8.954 20 20v54h54c11.046 0 20 8.954 20 20s-8.954 20-20 20h-54v54c0 11.046-8.954 20-20 20s-20-8.954-20-20v-54h-54c-11.046 0-20-8.954-20-20s8.954-20 20-20h54v-54c0-11.046 8.954-20 20-20z m553-93c33.137 0 60 26.863 60 60v254c0 33.137-26.863 60-60 60H598c-33.137 0-60-26.863-60-60V172c0-33.137 26.863-60 60-60h254z m0.344 40H598c-10.93 0-19.813 8.769-20 19.656V426c0 10.93 8.769 19.813 19.656 20H852c10.93 0 19.813-8.769 20-19.656V172c0-10.93-8.769-19.813-19.656-20zM799 279c11.046 0 20 8.954 20 20s-8.954 20-20 20H651c-11.046 0-20-8.954-20-20s8.954-20 20-20h148zM426 539c33.137 0 60 26.863 60 60v254c0 33.137-26.863 60-60 60H172c-33.137 0-60-26.863-60-60V599c0-33.137 26.863-60 60-60h254z m0.344 40H172c-10.93 0-19.813 8.769-20 19.656V853c0 10.93 8.769 19.813 19.656 20H426c10.93 0 19.813-8.769 20-19.656V599c0-10.93-8.769-19.813-19.656-20z m-165.528 80.532L299 697.716l38.184-38.184c7.81-7.81 20.474-7.81 28.284 0 7.81 7.81 7.81 20.474 0 28.284L327.284 726l38.184 38.184c7.81 7.81 7.81 20.474 0 28.284-7.81 7.81-20.474 7.81-28.284 0L299 754.284l-38.184 38.184c-7.81 7.81-20.474 7.81-28.284 0-7.81-7.81-7.81-20.474 0-28.284L270.716 726l-38.184-38.184c-7.81-7.81-7.81-20.474 0-28.284 7.81-7.81 20.474-7.81 28.284 0zM852 539c33.137 0 60 26.863 60 60v254c0 33.137-26.863 60-60 60H598c-33.137 0-60-26.863-60-60V599c0-33.137 26.863-60 60-60h254z m0.344 40H598c-10.93 0-19.813 8.769-20 19.656V853c0 10.93 8.769 19.813 19.656 20H852c10.93 0 19.813-8.769 20-19.656V599c0-10.93-8.769-19.813-19.656-20zM799 751c11.046 0 20 8.954 20 20s-8.954 20-20 20H651c-11.046 0-20-8.954-20-20s8.954-20 20-20h148z m0-90c11.046 0 20 8.954 20 20s-8.954 20-20 20H651c-11.046 0-20-8.954-20-20s8.954-20 20-20h148z"  /></svg>