<?xml version="1.0" standalone="no"?><!DOCTYPE svg PUBLIC "-//W3C//DTD SVG 1.1//EN" "http://www.w3.org/Graphics/SVG/1.1/DTD/svg11.dtd"><svg class="icon" width="200px" height="200.00px" viewBox="0 0 1024 1024" version="1.1" xmlns="http://www.w3.org/2000/svg"><path fill="#333333" d="M770 161.205a19.94 19.94 0 0 1 14.266 5.982l0.065 0.064 121.622 121.623c7.81 7.81 7.81 20.473 0 28.284-7.81 7.81-20.473 7.81-28.284 0L790 229.489v613.716c0 10.93-8.769 19.813-19.656 19.997l-0.344 0.003c-11.046 0-20-8.955-20-20v-662c0-11.046 8.954-20 20-20zM133 161h490c11.046 0 20 8.954 20 20s-8.954 20-20 20H133c-11.046 0-20-8.954-20-20s8.954-20 20-20z m0 331h490c11.046 0 20 8.954 20 20s-8.954 20-20 20H133c-11.046 0-20-8.954-20-20s8.954-20 20-20z m0 332h490c11.046 0 20 8.954 20 20s-8.954 20-20 20H133c-11.046 0-20-8.954-20-20s8.954-20 20-20z"  /></svg>