<?xml version="1.0" standalone="no"?><!DOCTYPE svg PUBLIC "-//W3C//DTD SVG 1.1//EN" "http://www.w3.org/Graphics/SVG/1.1/DTD/svg11.dtd"><svg class="icon" width="200px" height="200.00px" viewBox="0 0 1024 1024" version="1.1" xmlns="http://www.w3.org/2000/svg"><path fill="#333333" d="M526.406 794.663c-95.288 95.287-249.78 95.287-345.069 0-94.335-94.336-95.278-246.697-2.83-342.192l2.83-2.877 218.078-218.077c7.81-7.81 20.474-7.81 28.285 0 7.729 7.729 7.81 20.21 0.241 28.038l-0.241 0.246-218.078 218.078c-79.667 79.667-79.667 208.832 0 288.5 78.87 78.87 206.254 79.658 286.095 2.365l2.404-2.366 331.633-331.633c53.502-53.502 53.502-140.245 0-193.747-52.966-52.967-138.513-53.497-192.132-1.59l-1.615 1.59L336.194 540.81c-27.337 27.337-27.337 71.658 0 98.995 27.063 27.063 70.773 27.334 98.17 0.812l0.825-0.812 241.715-241.715c7.81-7.81 20.474-7.81 28.285 0 7.729 7.729 7.81 20.21 0.241 28.038l-0.241 0.246L463.473 668.09c-42.958 42.958-112.606 42.958-155.563 0-42.528-42.528-42.954-111.215-1.276-154.266l1.276-1.297 299.813-299.813c0.09-0.091 0.182-0.18 0.274-0.269l-0.274 0.269c69.123-69.123 181.193-69.123 250.316 0 68.431 68.431 69.116 178.956 2.053 248.229l-2.053 2.086-331.633 331.634z"  /></svg>