<?xml version="1.0" standalone="no"?><!DOCTYPE svg PUBLIC "-//W3C//DTD SVG 1.1//EN" "http://www.w3.org/Graphics/SVG/1.1/DTD/svg11.dtd"><svg class="icon" width="200px" height="200.00px" viewBox="0 0 1024 1024" version="1.1" xmlns="http://www.w3.org/2000/svg"><path fill="#333333" d="M612 112c33.137 0 60 26.863 60 60v100h140c55.228 0 100 44.772 100 100v440c0 55.228-44.772 100-100 100H212c-55.228 0-100-44.772-100-100V372c0-55.228 44.772-100 100-100h140V172c0-33.137 26.863-60 60-60h200z m260 485H687v93c0 11.046-8.954 20-20 20s-20-8.954-20-20v-93H378v93c0 11.046-8.954 20-20 20s-20-8.954-20-20v-93H152v215c0 32.806 26.328 59.462 59.008 59.992L212 872h600c32.806 0 59.462-26.328 59.992-59.008L872 812V597z m-60-285H212c-32.806 0-59.462 26.328-59.992 59.008L152 372v185h186v-63c0-11.046 8.954-20 20-20s20 8.954 20 20v63h269v-63c0-11.046 8.954-20 20-20s20 8.954 20 20v63h185V372c0-32.806-26.328-59.462-59.008-59.992L812 312zM612 152H412c-10.93 0-19.813 8.769-19.997 19.656L392 172v100h240V172c0-10.93-8.769-19.813-19.656-19.997L612 152z"  /></svg>