<?xml version="1.0" standalone="no"?><!DOCTYPE svg PUBLIC "-//W3C//DTD SVG 1.1//EN" "http://www.w3.org/Graphics/SVG/1.1/DTD/svg11.dtd"><svg class="icon" width="200px" height="200.00px" viewBox="0 0 1024 1024" version="1.1" xmlns="http://www.w3.org/2000/svg"><path fill="#333333" d="M816 112c33.137 0 60 26.863 60 60v680c0 33.137-26.863 60-60 60H208c-33.137 0-60-26.863-60-60V172c0-33.137 26.863-60 60-60h608z m0.344 40H208c-10.93 0-19.813 8.769-20 19.656V852c0 10.93 8.769 19.813 19.656 20H816c10.93 0 19.813-8.769 20-19.656V172c0-10.93-8.769-19.813-19.656-20zM355 675c16.569 0 30 13.431 30 30v86c0 16.569-13.431 30-30 30h-86c-16.569 0-30-13.431-30-30v-86c0-16.569 13.431-30 30-30h86z m200 0c16.569 0 30 13.431 30 30v86c0 16.569-13.431 30-30 30h-86c-16.569 0-30-13.431-30-30v-86c0-16.569 13.431-30 30-30h86z m200-200c16.569 0 30 13.431 30 30v286c0 16.569-13.431 30-30 30h-86c-16.569 0-30-13.431-30-30V505c0-16.569 13.431-30 30-30h86zM345 715h-66v66h66v-66z m200 0h-66v66h66v-66z m200-200h-66v266h66V515z m-390-40c16.569 0 30 13.431 30 30v86c0 16.569-13.431 30-30 30h-86c-16.569 0-30-13.431-30-30v-86c0-16.569 13.431-30 30-30h86z m200 0c16.569 0 30 13.431 30 30v86c0 16.569-13.431 30-30 30h-86c-16.569 0-30-13.431-30-30v-86c0-16.569 13.431-30 30-30h86z m-210 40h-66v66h66v-66z m200 0h-66v66h66v-66z m210-293c16.569 0 30 13.431 30 30v115c0 16.569-13.431 30-30 30H269c-16.569 0-30-13.431-30-30V252c0-16.569 13.431-30 30-30h486z m-10 40H279v95h466v-95z"  /></svg>