<?xml version="1.0" standalone="no"?><!DOCTYPE svg PUBLIC "-//W3C//DTD SVG 1.1//EN" "http://www.w3.org/Graphics/SVG/1.1/DTD/svg11.dtd"><svg class="icon" width="200px" height="200.00px" viewBox="0 0 1024 1024" version="1.1" xmlns="http://www.w3.org/2000/svg"><path fill="#333333" d="M512 64c247.424 0 448 200.576 448 448S759.424 960 512 960 64 759.424 64 512 264.576 64 512 64z m0 40c-225.332 0-408 182.668-408 408s182.668 408 408 408 408-182.668 408-408-182.668-408-408-408z m0 238c93.888 0 170 76.112 170 170 0 60.735-32.402 116.857-85 147.224-52.598 30.368-117.402 30.368-170 0-52.598-30.367-85-86.489-85-147.224 0-93.888 76.112-170 170-170z"  /></svg>