<?xml version="1.0" standalone="no"?><!DOCTYPE svg PUBLIC "-//W3C//DTD SVG 1.1//EN" "http://www.w3.org/Graphics/SVG/1.1/DTD/svg11.dtd"><svg class="icon" width="200px" height="200.00px" viewBox="0 0 1024 1024" version="1.1" xmlns="http://www.w3.org/2000/svg"><path fill="#333333" d="M892.17 131.322c9.762 9.763 9.762 25.593 0 35.356L547.1 511.745l345.068 345.069c9.763 9.763 9.763 25.592 0 35.355-9.763 9.763-25.592 9.763-35.355 0L511.745 547.101 166.678 892.169c-9.763 9.763-25.593 9.763-35.356 0-9.763-9.763-9.763-25.592 0-35.355L476.39 511.745 131.322 166.678c-9.763-9.763-9.763-25.593 0-35.356 9.763-9.763 25.593-9.763 35.356 0L511.745 476.39l345.069-345.068c9.763-9.763 25.592-9.763 35.355 0z"  /></svg>