<?xml version="1.0" standalone="no"?><!DOCTYPE svg PUBLIC "-//W3C//DTD SVG 1.1//EN" "http://www.w3.org/Graphics/SVG/1.1/DTD/svg11.dtd"><svg class="icon" width="200px" height="200.00px" viewBox="0 0 1024 1024" version="1.1" xmlns="http://www.w3.org/2000/svg"><path fill="#333333" d="M573.929 112c11.046 0 20 8.954 20 20 0 10.93-8.769 19.813-19.656 19.997l-0.344 0.003H162c-5.43 0-9.848 4.327-9.996 9.72L152 162v700c0 5.43 4.327 9.848 9.72 9.996l0.28 0.004h700c5.43 0 9.848-4.327 9.996-9.72L872 862V443.197c0-11.046 8.954-20 20-20 10.93 0 19.813 8.769 20 19.655V862c0 27.338-21.94 49.552-49.173 50H162c-27.338 0-49.552-21.94-50-49.173V162c0-27.338 21.94-49.552 49.173-50H573.93z m264.32 17.917l56.57 56.568c23.43 23.432 23.43 61.422 0 84.853L484.695 681.46l-157.83 43.46c-11.715 3.226-23.826-3.655-27.052-15.37a22 22 0 0 1 0-11.68l43.461-157.831 410.122-410.122c23.431-23.432 61.421-23.432 84.853 0zM379.339 560.545l-0.305 0.304-32.244 117.095L463.888 645.7l0.302-0.302-84.852-84.853z m328.097-328.098L407.622 532.261l84.853 84.852L792.288 317.3l-84.853-84.853z m74.492-74.488l-0.246 0.242-45.962 45.962 84.853 84.853 45.962-45.962c7.73-7.73 7.81-20.21 0.244-28.04L809.966 158.2c-7.73-7.73-20.21-7.81-28.04-0.242z"  /></svg>