<?xml version="1.0" standalone="no"?><!DOCTYPE svg PUBLIC "-//W3C//DTD SVG 1.1//EN" "http://www.w3.org/Graphics/SVG/1.1/DTD/svg11.dtd"><svg class="icon" width="200px" height="200.00px" viewBox="0 0 1024 1024" version="1.1" xmlns="http://www.w3.org/2000/svg"><path fill="#333333" d="M446 538c21.87 0 39.641 17.552 39.995 39.339L486 578v294c0 21.87-17.552 39.641-39.339 39.995L446 912H152c-21.87 0-39.641-17.552-39.995-39.339L112 872V578c0-21.87 17.552-39.641 39.339-39.995L152 538h294z m279 0c103.277 0 187 83.723 187 187 0 102.244-82.057 185.324-183.908 186.975L725 912c-103.277 0-187-83.723-187-187 0-102.244 82.057-185.324 183.908-186.975L725 538z m-279 40H152v294h294V578z m279 0c-81.186 0-147 65.814-147 147s65.814 147 147 147 147-65.814 147-147-65.814-147-147-147zM446 112c22.091 0 40 17.909 40 40v294c0 22.091-17.909 40-40 40H152c-22.091 0-40-17.909-40-40V152c0-22.091 17.909-40 40-40h294z m426 0c21.87 0 39.641 17.552 39.995 39.339L912 152v294c0 21.87-17.552 39.641-39.339 39.995L872 486H578c-21.87 0-39.641-17.552-39.995-39.339L538 446V152c0-21.87 17.552-39.641 39.339-39.995L578 112h294z m-426 40H152v294h294V152z m426 0H578v294h294V152z"  /></svg>