<?xml version="1.0" standalone="no"?><!DOCTYPE svg PUBLIC "-//W3C//DTD SVG 1.1//EN" "http://www.w3.org/Graphics/SVG/1.1/DTD/svg11.dtd"><svg class="icon" width="200px" height="200.00px" viewBox="0 0 1024 1024" version="1.1" xmlns="http://www.w3.org/2000/svg"><path fill="#333333" d="M604.961 185.164A60 60 0 0 1 608 204.016V409.29l202.282 134.855A60 60 0 0 1 837 594.068v245.889h55c11.046 0 20 8.955 20 20 0 11.046-8.954 20-20 20H132c-11.046 0-20-8.954-20-20 0-11.045 8.954-20 20-20h53V304.3c0-25.873 16.585-48.832 41.148-56.961l303-100.284c31.458-10.412 65.401 6.65 75.813 38.109z m-62.91-0.242l-0.335 0.107-303 100.284a20 20 0 0 0-13.712 18.601l-0.004 0.386v535.657h342v-458l1 0.667V204.016a20 20 0 0 0-0.852-5.775l-0.16-0.509c-3.435-10.375-14.546-16.052-24.937-12.81zM608 457.365v382.592h189V594.068a20 20 0 0 0-8.575-16.415l-0.331-0.226L608 457.365zM471 642.957c11.046 0 20 8.955 20 20 0 11.046-8.954 20-20 20H323c-11.046 0-20-8.954-20-20 0-11.045 8.954-20 20-20h148z m281 0c11.046 0 20 8.955 20 20 0 11.046-8.954 20-20 20H652c-11.046 0-20-8.954-20-20 0-11.045 8.954-20 20-20h100z m-281-120c11.046 0 20 8.955 20 20 0 11.046-8.954 20-20 20H323c-11.046 0-20-8.954-20-20 0-11.045 8.954-20 20-20h148z m0-120c11.046 0 20 8.955 20 20 0 11.046-8.954 20-20 20H323c-11.046 0-20-8.954-20-20 0-11.045 8.954-20 20-20h148z"  /></svg>