<?xml version="1.0" standalone="no"?><!DOCTYPE svg PUBLIC "-//W3C//DTD SVG 1.1//EN" "http://www.w3.org/Graphics/SVG/1.1/DTD/svg11.dtd"><svg class="icon" width="200px" height="200.00px" viewBox="0 0 1024 1024" version="1.1" xmlns="http://www.w3.org/2000/svg"><path fill="#333333" d="M804 92c33.137 0 60 26.863 60 60v720c0 33.137-26.863 60-60 60H220c-33.137 0-60-26.863-60-60V712h-40c-11.046 0-20-8.954-20-20s8.954-20 20-20h40V532h-40c-11.046 0-20-8.954-20-20s8.954-20 20-20h40V352h-40c-11.046 0-20-8.954-20-20s8.954-20 20-20h40V152c0-33.137 26.863-60 60-60h584z m0.344 40H220c-10.93 0-19.813 8.769-20 19.656V312h40c11.046 0 20 8.954 20 20s-8.954 20-20 20h-40v140h40c11.046 0 20 8.954 20 20s-8.954 20-20 20h-40v140h40c11.046 0 20 8.954 20 20s-8.954 20-20 20h-40v160c0 10.93 8.769 19.813 19.656 20H804c10.93 0 19.813-8.769 20-19.656V152c0-10.93-8.769-19.813-19.656-20zM653.006 557c44.18 0 79.994 35.817 79.994 80s-35.815 80-79.994 80H451.994C407.814 717 372 681.183 372 637s35.815-80 79.994-80h201.012z m0 40H451.994C429.907 597 412 614.908 412 637c0 21.871 17.55 39.641 39.333 39.995l0.661 0.005h201.012C675.093 677 693 659.092 693 637c0-21.871-17.55-39.641-39.333-39.995l-0.661-0.005zM552.5 307c56.61 0 102.5 50.816 102.5 113.5S609.11 534 552.5 534 450 483.184 450 420.5 495.89 307 552.5 307z m0 40c-33.557 0-62.5 32.05-62.5 73.5s28.943 73.5 62.5 73.5 62.5-32.05 62.5-73.5-28.943-73.5-62.5-73.5z"  /></svg>