<?xml version="1.0" standalone="no"?><!DOCTYPE svg PUBLIC "-//W3C//DTD SVG 1.1//EN" "http://www.w3.org/Graphics/SVG/1.1/DTD/svg11.dtd"><svg class="icon" width="200px" height="200.00px" viewBox="0 0 1024 1024" version="1.1" xmlns="http://www.w3.org/2000/svg"><path fill="#333333" d="M186 380.122a28 28 0 0 1 12.433 2.912l0.501 0.255 272 141.667a28 28 0 0 1 15.062 24.38l0.004 0.453v349.96c0 15.464-12.536 28-28 28a28 28 0 0 1-12.433-2.912l-0.501-0.254-272-141.667a28 28 0 0 1-15.062-24.38l-0.004-0.454v-349.96c0-15.464 12.536-28 28-28z m652 0c15.464 0 28 12.536 28 28v349.96a28 28 0 0 1-15.066 24.834l-272 141.667A28 28 0 0 1 566 927.749c-15.464 0-28-12.536-28-28v-349.96a28 28 0 0 1 15.066-24.833l272-141.667A28 28 0 0 1 838 380.122z m-640 47.78v322.9l248 129.167v-322.9L198 427.903z m628 0L578 557.07v322.9l248-129.167v-322.9z m-298.796-327.29L848.448 280.66a28.274 28.274 0 0 1 11.295 11.683c7.171 13.877 1.73 30.944-12.153 38.119L525.75 496.799a28.3 28.3 0 0 1-26.406-0.22L172.974 320.9a28.274 28.274 0 0 1-11.663-11.812c-7.229-13.848-1.859-30.936 11.995-38.17L500.27 100.215a28.3 28.3 0 0 1 26.933 0.398z m-14.173 39.057L211.979 296.85l300.716 161.784L809.021 305.48l-295.99-165.81z"  /></svg>