<?xml version="1.0" standalone="no"?><!DOCTYPE svg PUBLIC "-//W3C//DTD SVG 1.1//EN" "http://www.w3.org/Graphics/SVG/1.1/DTD/svg11.dtd"><svg class="icon" width="200px" height="200.00px" viewBox="0 0 1024 1024" version="1.1" xmlns="http://www.w3.org/2000/svg"><path fill="#333333" d="M512 114c189.807 0 344.526 150.23 351.737 338.272h-0.01C907.605 463.674 940 503.554 940 551v94c0 56.333-45.667 102-102 102-18.269 0-35.415-4.803-50.247-13.214-0.335 0.493-0.698 0.977-1.085 1.449-42.28 51.458-98.447 90.014-161.91 110.67-2.97 36.084-32.926 64.521-69.643 65.086L554 911h-66c-39.212 0-71-31.788-71-71 0-38.82 31.155-70.364 69.826-70.99L488 769h66c27.082 0 50.622 15.163 62.595 37.462 54.444-18.598 102.646-52.172 139.167-96.62a20.178 20.178 0 0 1 1.888-2.004C744.086 690.52 736 668.704 736 645v-94c0-51.443 38.082-93.99 87.593-100.99C815.275 285.129 678.95 154 512 154c-166.904 0-303.199 131.055-311.59 295.873C250.408 456.443 289 499.214 289 551v94c0 56.333-45.667 102-102 102S85 701.333 85 645v-94c0-47.08 31.898-86.711 75.262-98.46C167.326 264.375 322.102 114 512 114z m42 695h-66c-17.12 0-31 13.88-31 31 0 16.95 13.603 30.722 30.487 30.996L488 871h66c17.12 0 31-13.88 31-31 0-17.12-13.88-31-31-31zM187 489c-33.9 0-61.444 27.206-61.992 60.975L125 551v94c0 34.242 27.758 62 62 62 33.9 0 61.444-27.206 61.992-60.975L249 645v-94c0-34.242-27.758-62-62-62z m651 0c-33.9 0-61.444 27.206-61.992 60.975L776 551v94c0 34.242 27.758 62 62 62 33.9 0 61.444-27.206 61.992-60.975L900 645v-94c0-34.242-27.758-62-62-62z"  /></svg>