<?xml version="1.0" standalone="no"?><!DOCTYPE svg PUBLIC "-//W3C//DTD SVG 1.1//EN" "http://www.w3.org/Graphics/SVG/1.1/DTD/svg11.dtd"><svg class="icon" width="200px" height="200.00px" viewBox="0 0 1024 1024" version="1.1" xmlns="http://www.w3.org/2000/svg"><path fill="#333333" d="M522.046 448c5.523 0 10 4.477 10 10v232h88.047a10 10 0 0 1 5.985 1.989c4.425 3.305 5.332 9.572 2.026 13.996L519.558 851.277a10 10 0 0 1-2.026 2.026c-4.425 3.305-10.691 2.398-13.997-2.026L394.99 705.985A10 10 0 0 1 393 700c0-5.523 4.477-10 10-10h89.046V458c0-5.523 4.478-10 10-10z m-7.158-279c134.452 0 249.256 91.875 277.835 217.856l0.199 0.909 2.772 0.429c92.578 15.021 162.798 93.162 164.282 187.064l0.024 3.034c0 100.327-78.475 183.366-179.46 191.974l-1.137 0.088-0.392 0.085a28.11 28.11 0 0 1-4.962 0.554l-0.63 0.007v-40c-1.18 0-2.347 0.177-3.456 0.514l-0.414 0.135 2.497-0.862 2.635-0.185C856.4 724.882 920 658.4 920 578.292c0-79.295-62.318-145.243-142.844-152.113l-2.445-0.19-15.757-1.104-2.577-15.585C737.42 294.61 635.453 209 514.888 209c-90.655 0-172.434 48.498-214.938 124.588l-1.276 2.314-5.075 9.326-10.568 1.022C182.312 355.986 105 438.907 105 538.15c0 100.498 79.18 183.929 181.204 192.179l3.098 0.227 2.875 0.188 2.705 0.993a12.029 12.029 0 0 0-3.711-0.73l-0.422-0.007v40c-1.84 0-3.664-0.18-5.449-0.534l-0.704-0.15-1.635-0.119c-121.304-9.815-216.03-108.44-217.932-228.37L65 538.15c0-116.473 87.675-214.003 203.37-230.426l0.353-0.048 0.931-1.563c50.154-83.202 141.278-136.005 242.049-137.096l3.185-0.017z"  /></svg>