<?xml version="1.0" standalone="no"?><!DOCTYPE svg PUBLIC "-//W3C//DTD SVG 1.1//EN" "http://www.w3.org/Graphics/SVG/1.1/DTD/svg11.dtd"><svg class="icon" width="200px" height="200.00px" viewBox="0 0 1024 1024" version="1.1" xmlns="http://www.w3.org/2000/svg"><path fill="#333333" d="M890.51 868.707c11.046 0 20 8.955 20 20 0 11.046-8.954 20-20 20h-364c-11.045 0-20-8.954-20-20 0-11.045 8.955-20 20-20h364zM747.672 129.25l144.047 144.048c20.754 20.754 18.583 56.573-4.848 80.004L430.458 809.714c-6.754 6.754-14.84 11.982-23.582 15.25l-206.893 77.324c-36.904 13.792-74.443-3.804-83.847-39.301-3.549-13.393-2.659-28.077 2.545-42l77.324-206.894c3.267-8.743 8.496-16.828 15.25-23.582l456.413-456.413c23.431-23.431 59.25-25.602 80.004-4.849zM237.199 621.456a25.8 25.8 0 0 0-3.532 6.14l-0.194 0.5L156.15 834.99c-2.355 6.301-2.733 12.528-1.348 17.753 3.124 11.795 15.528 17.712 30.716 12.245l0.461-0.169 206.893-77.324c2.314-0.864 4.568-2.127 6.641-3.726L237.2 621.456z m368.243-368.564L265.324 593.01l162.634 162.635 340.119-340.118-162.635-162.635z m90.804-90.8l-0.294 0.29-62.226 62.226 162.635 162.634 62.225-62.225c8.426-8.425 9.15-18.875 4.998-23.286L719.387 157.534c-4.267-4.267-14.67-3.689-23.14 4.558z"  /></svg>