<?xml version="1.0" standalone="no"?><!DOCTYPE svg PUBLIC "-//W3C//DTD SVG 1.1//EN" "http://www.w3.org/Graphics/SVG/1.1/DTD/svg11.dtd"><svg class="icon" width="200px" height="200.00px" viewBox="0 0 1024 1024" version="1.1" xmlns="http://www.w3.org/2000/svg"><path fill="#333333" d="M629 112c43.741 0 79.283 35.104 79.99 78.677L709 192v68.035c0 11.046-8.954 20-20 20-10.93 0-19.813-8.768-19.997-19.655l-0.003-0.345V192c0-21.87-17.552-39.641-39.339-39.995L629 152H205c-21.87 0-39.641 17.552-39.995 39.339L165 192v640c0 21.87 17.552 39.641 39.339 39.995L205 872h424c21.87 0 39.641-17.552 39.995-39.339L669 832v-64.022c0-11.046 8.954-20 20-20 10.93 0 19.813 8.769 20 19.655V832c0 43.741-35.104 79.283-78.677 79.99L629 912H205c-43.741 0-79.283-35.104-79.99-78.677L125 832V192c0-43.741 35.104-79.283 78.677-79.99L205 112h424z m-73.592 271.858c7.81-7.81 20.474-7.81 28.285 0 7.81 7.81 7.81 20.474 0 28.284L503.836 492 879.55 492c11.045 0 20 8.954 20 20s-8.955 20-20 20H502.947l80.746 80.747c7.81 7.81 7.81 20.474 0 28.285-7.81 7.81-20.474 7.81-28.285 0L442.701 528.326a20.2 20.2 0 0 1-1.844-1.633A19.935 19.935 0 0 1 435 512.728v-0.566a19.935 19.935 0 0 1 5.857-13.966 20.2 20.2 0 0 1 1.846-1.634z"  /></svg>