<?xml version="1.0" standalone="no"?><!DOCTYPE svg PUBLIC "-//W3C//DTD SVG 1.1//EN" "http://www.w3.org/Graphics/SVG/1.1/DTD/svg11.dtd"><svg class="icon" width="200px" height="200.00px" viewBox="0 0 1024 1024" version="1.1" xmlns="http://www.w3.org/2000/svg"><path fill="#333333" d="M751.739 112c15.2 0.17 29.87 5.66 41.45 15.53 27.049 23.053 30.525 63.493 7.998 90.81l-0.691 0.823-186.483 218.798v453.791c0 11.046-8.954 20-20 20s-20-8.954-20-20v-462c0-1.977 0.287-3.887 0.821-5.69l-1.101-0.506 2.45-2.875a20.09 20.09 0 0 1 6.042-7.087l187.828-220.377 0.266-0.317c8.664-10.507 7.327-26.06-3.076-34.927a25 25 0 0 0-15.722-5.968l-0.495-0.005h-574.44C162.97 152.224 152 163.331 152 177a25 25 0 0 0 5.656 15.837l0.317 0.38 187.829 220.377a20.09 20.09 0 0 1 6.04 7.088l0.6 0.704-0.206 0.113a19.928 19.928 0 0 1 1.777 8.253v250.716L455.895 782.35c7.81 7.81 7.81 20.474 0 28.285-7.81 7.81-20.473 7.81-28.284 0L324.105 707.13c-6.028-3.445-10.092-9.937-10.092-17.378V437.963l-186.483-218.8-0.46-0.545A65 65 0 0 1 112 177c0-35.54 28.522-64.417 63.925-64.991L177 112h574.739zM892 870c11.046 0 20 8.954 20 20s-8.954 20-20 20H678c-11.046 0-20-8.954-20-20s8.954-20 20-20h214z m0-170c11.046 0 20 8.954 20 20s-8.954 20-20 20H678c-11.046 0-20-8.954-20-20s8.954-20 20-20h214z m0-170c11.046 0 20 8.954 20 20s-8.954 20-20 20H678c-11.046 0-20-8.954-20-20s8.954-20 20-20h214z"  /></svg>