<?xml version="1.0" standalone="no"?><!DOCTYPE svg PUBLIC "-//W3C//DTD SVG 1.1//EN" "http://www.w3.org/Graphics/SVG/1.1/DTD/svg11.dtd"><svg class="icon" width="200px" height="200.00px" viewBox="0 0 1024 1024" version="1.1" xmlns="http://www.w3.org/2000/svg"><path fill="#333333" d="M396.305 123.055c14.95 15.213 23.217 45.491 19.367 80.06-4.632 41.601-25.636 84.61-63.286 122.686-40.462 40.92-68.595 80.522-86.66 118.026l-0.608 1.271c-0.403 0.846-0.8 1.688-1.19 2.527l-0.672 1.456-0.09-0.124c-7.428-10.23-15.965-17.998-25.334-21.89-10.336-4.294-22.184 0.73-26.283 11.144-65.98 167.635-47.414 304.194 56.87 405.66l0.138 0.133c62.94 60.074 146.13 90.032 248.452 90.032 56.34 0 105.487-9.76 149.47-28.166 35.8-14.981 66.514-34.72 98.089-60.95l0.343-0.29c53.529-46.541 81.799-116.828 86.118-196.26 3.615-66.495-10.723-134.017-35.219-170.833-16.948-25.473-26.676-55.224-29.29-85.14-0.088-1.016-0.168-2.03-0.239-3.038l-0.1-1.51-0.045-0.753-0.08-1.5-0.068-1.491-0.029-0.743-0.048-1.48-0.02-0.736-0.03-1.466c-0.008-0.487-0.014-0.973-0.017-1.457l-0.006-1.446c0-0.24 0-0.48 0.002-0.719l0.012-1.43 0.024-1.418 0.036-1.406c0.02-0.7 0.046-1.396 0.075-2.086l0.064-1.374c0.023-0.456 0.048-0.91 0.075-1.36l0.086-1.347c0.015-0.223 0.03-0.445 0.047-0.667l0.102-1.324 0.055-0.655 0.118-1.3 0.128-1.284 0.138-1.266 0.073-0.627 0.153-1.24 0.08-0.614 0.169-1.212c0.057-0.401 0.116-0.8 0.177-1.194l0.187-1.174 0.097-0.58 0.201-1.144c0.137-0.756 0.28-1.498 0.429-2.225l0.227-1.08 0.236-1.058c0.08-0.349 0.162-0.694 0.245-1.035l0.253-1.011 0.261-0.988c0.133-0.488 0.268-0.966 0.407-1.435l0.281-0.926 0.289-0.9c0.682-2.07 1.425-3.925 2.222-5.536l0.171-0.342c6.784-13.306-2.882-29.084-17.818-29.084-28.047 0-53.914 14.203-75.697 37.935l-0.703 0.771a165.328 165.328 0 0 0-4.138 4.749l-0.44 0.525-0.183-0.929c-6.574-32.866-18.156-63.133-34.321-90.821-22.696-38.874-53.784-71.631-91.284-98.77-29.847-21.6-62.42-38.702-95.769-51.758l-0.963-0.376-1.921-0.742-1.912-0.73-1.903-0.715-1.893-0.703-0.943-0.347-1.876-0.683-1.864-0.67-1.852-0.655-1.838-0.643-2.73-0.938-1.801-0.608-0.895-0.299-1.776-0.587-1.759-0.573-1.74-0.559-1.722-0.544-1.702-0.53-2.514-0.769-1.65-0.494-1.626-0.479-1.604-0.464-1.58-0.45-1.554-0.435-1.53-0.419-1.503-0.404-1.476-0.39-1.448-0.373-1.419-0.358-1.39-0.343-1.36-0.327-1.329-0.31-1.297-0.296-0.636-0.142-1.248-0.271-0.612-0.13-1.197-0.247c-19.331-3.918-32.062 19.551-18.237 33.62z m54.472 19.141l-0.088-0.305 0.324 0.121c2.31 0.858 4.65 1.75 7.01 2.673 30.374 11.892 59.99 27.442 86.9 46.916 33.213 24.036 60.474 52.76 80.191 86.532 22.93 39.277 35.226 84.638 35.226 136.883 0 22.932 32.312 27.826 39.103 5.923 5.061-16.325 16.104-35.66 29.468-50.22l0.501-0.542c5.458-5.875 11.07-10.754 16.746-14.567l0.864-0.573-0.054 0.492c-1.381 12.53-1.525 26.275-0.295 40.35 3.174 36.328 15.002 72.504 35.835 103.816 19.207 28.868 31.761 87.987 28.58 146.503l-0.12 2.08c-4.1 67.881-27.804 126.7-70.975 165l-1.168 1.024 0.184-0.15c-28.74 23.873-56.208 41.526-87.972 54.819-39.065 16.347-82.961 25.065-134.028 25.065l-2.77-0.008c-90.265-0.516-162.05-26.362-216.406-77.39l-1.584-1.499-2.666-2.625C210.548 729.815 191.449 621.56 237.2 484.62l0.337-1 0.17 0.334 0.525 1.062a92.106 92.106 0 0 1 2.369 5.288l0.42 1.041c0.136 0.346 0.27 0.69 0.4 1.033l0.382 1.023 0.363 1.01c0.176 0.502 0.345 1 0.506 1.49l0.312 0.975c0.1 0.322 0.197 0.641 0.29 0.957l0.27 0.938 0.249 0.919c0.751 2.874 1.173 5.422 1.214 7.426l0.003 0.311c0 24.115 34.788 27.62 39.598 3.99l0.577-2.88a162.685 162.685 0 0 1 3.534-14.141c3.007-10.126 7.236-21.15 13.045-33.21 16.126-33.478 41.681-69.452 79.065-107.26 43.893-44.39 68.955-95.706 74.598-146.383 2.596-23.315 0.87-45.723-4.65-65.346z"  /></svg>