<?xml version="1.0" standalone="no"?><!DOCTYPE svg PUBLIC "-//W3C//DTD SVG 1.1//EN" "http://www.w3.org/Graphics/SVG/1.1/DTD/svg11.dtd"><svg class="icon" width="200px" height="200.00px" viewBox="0 0 1024 1024" version="1.1" xmlns="http://www.w3.org/2000/svg"><path fill="#333333" d="M556.804 131.166l0.769 0.752L896.49 472.61c18.696 18.794 18.617 49.186-0.177 67.882a48.02 48.02 0 0 1-33.249 13.97H815V793c0 65.065-50.463 117.933-113.098 118.984L700 912h-86.008c-15.852 0-28.732-13.164-28.988-29.504L585 882l-0.001-31h-0.357V618c0-6.924-2.145-12.983-5.411-16.886-1.903-2.274-3.363-3.058-4.346-3.114H449.222c-0.983 0-2.48 0.756-4.453 3.114-3.185 3.805-5.304 9.66-5.408 16.368l-0.004 0.518v233h-0.358l0.001 31c0 16.569-12.98 30-28.992 30H324c-63.513 0-115-53.278-115-119l-0.001-238.538H161c-26.51 0-48-21.49-48-48a48 48 0 0 1 13.547-33.421l0.423-0.431L465.65 132.158c25.064-25.196 65.652-25.553 91.155-0.992zM399 618c0-33.137 22.485-60 50.222-60h125.556C602.515 558 625 584.863 625 618l-0.001 15.462H625V872h75l1.231-0.01c40.147-0.685 73.104-34.806 73.76-77.688L775 793V554.462h-0.27v-40h87.731a8 8 0 0 0 5.867-13.44l-0.195-0.202L702.638 334.46h-20.7a111.96 111.96 0 0 1 16.834-1.452L700 333c0.398 0 0.796 0.002 1.193 0.006L529.335 160.25l-0.268-0.263c-9.71-9.35-25.102-9.31-34.763 0.088l-0.297 0.294-171.748 172.644a112.045 112.045 0 0 1 19.803 1.446h-21.24L155.328 500.82a8 8 0 0 0 5.423 13.639l0.249 0.003h87.73v1h0.27V793c0 43.491 33.216 78.298 73.769 78.99L324 872h75V618z"  /></svg>