<?xml version="1.0" standalone="no"?><!DOCTYPE svg PUBLIC "-//W3C//DTD SVG 1.1//EN" "http://www.w3.org/Graphics/SVG/1.1/DTD/svg11.dtd"><svg class="icon" width="200px" height="200.00px" viewBox="0 0 1024 1024" version="1.1" xmlns="http://www.w3.org/2000/svg"><path fill="#333333" d="M512 64c247.424 0 448 200.576 448 448S759.424 960 512 960 64 759.424 64 512 264.576 64 512 64z m0 40c-225.332 0-408 182.668-408 408s182.668 408 408 408 408-182.668 408-408-182.668-408-408-408z m24 313.8V728h-48V417.8h48z m-24-117c10.2 0 18.6 3 25.8 10.2 7.2 6 10.8 14.4 10.8 25.2 0 10.2-3.6 18.6-10.8 25.8-7.2 6.6-15.6 10.2-25.8 10.2-10.2 0-18.6-3.6-25.8-10.2-7.2-7.2-10.2-15.6-10.2-25.8 0-10.8 3-19.2 10.2-25.2 7.2-7.2 15.6-10.2 25.8-10.2z"  /></svg>