<?xml version="1.0" standalone="no"?><!DOCTYPE svg PUBLIC "-//W3C//DTD SVG 1.1//EN" "http://www.w3.org/Graphics/SVG/1.1/DTD/svg11.dtd"><svg class="icon" width="200px" height="200.00px" viewBox="0 0 1024 1024" version="1.1" xmlns="http://www.w3.org/2000/svg"><path fill="#333333" d="M852 112c33.137 0 60 26.863 60 60v680c0 33.137-26.863 60-60 60H172c-33.137 0-60-26.863-60-60V172c0-33.137 26.863-60 60-60h680z m0.344 40H172c-10.93 0-19.813 8.769-20 19.656V852c0 10.93 8.769 19.813 19.656 20H852c10.93 0 19.813-8.769 20-19.656V172c0-10.93-8.769-19.813-19.656-20zM362 542c11.046 0 20 8.954 20 20v132c0 11.046-8.954 20-20 20s-20-8.954-20-20V562c0-11.046 8.954-20 20-20z m150-176c11.046 0 20 8.954 20 20v308c0 11.046-8.954 20-20 20s-20-8.954-20-20V386c0-11.046 8.954-20 20-20z m150 114c11.046 0 20 8.954 20 20v194c0 11.046-8.954 20-20 20s-20-8.954-20-20V500c0-11.046 8.954-20 20-20z"  /></svg>