<?xml version="1.0" standalone="no"?><!DOCTYPE svg PUBLIC "-//W3C//DTD SVG 1.1//EN" "http://www.w3.org/Graphics/SVG/1.1/DTD/svg11.dtd"><svg class="icon" width="200px" height="200.00px" viewBox="0 0 1024 1024" version="1.1" xmlns="http://www.w3.org/2000/svg"><path fill="#333333" d="M585.54 438.46c69.977 69.979 70.677 183.001 2.098 253.84l-2.099 2.134L421.49 858.482c-70.685 70.685-185.287 70.685-255.972 0-69.978-69.978-70.678-183-2.1-253.839l2.1-2.133 87.63-87.63c7.81-7.811 20.474-7.811 28.284 0 7.73 7.728 7.81 20.21 0.242 28.038l-0.242 0.246-87.63 87.63c-55.064 55.064-55.064 144.34 0 199.404 54.513 54.513 142.558 55.058 197.742 1.635l1.662-1.635L557.255 666.15c54.513-54.513 55.058-142.558 1.635-197.742l-1.635-1.662c-7.81-7.81-7.81-20.474 0-28.284 7.81-7.81 20.474-7.81 28.284 0z m272.942-272.942c69.978 69.978 70.678 183 2.1 253.839l-2.1 2.133-87.63 87.63c-7.81 7.811-20.474 7.811-28.284 0-7.73-7.728-7.81-20.21-0.242-28.038l0.242-0.246 87.63-87.63c55.064-55.064 55.064-144.34 0-199.404-54.513-54.513-142.558-55.058-197.742-1.635l-1.662 1.635L466.745 357.85c-54.513 54.513-55.058 142.558-1.635 197.742l1.635 1.662c7.81 7.81 7.81 20.474 0 28.284-7.81 7.81-20.474 7.81-28.284 0-69.978-69.978-70.678-183-2.1-253.839l2.1-2.134L602.51 165.518c70.685-70.685 185.287-70.685 255.972 0z"  /></svg>