<?xml version="1.0" standalone="no"?><!DOCTYPE svg PUBLIC "-//W3C//DTD SVG 1.1//EN" "http://www.w3.org/Graphics/SVG/1.1/DTD/svg11.dtd"><svg class="icon" width="200px" height="200.00px" viewBox="0 0 1024 1024" version="1.1" xmlns="http://www.w3.org/2000/svg"><path fill="#333333" d="M757.26 679.945C810.725 709.554 842 748.912 842 793c0 96.3-149.093 167-330 167s-330-70.7-330-167c0-43.228 30.083-81.935 81.7-111.348 9.597-5.468 21.81-2.122 27.279 7.475 5.468 9.597 2.122 21.81-7.475 27.279C243.129 739.412 222 766.599 222 793c0 30.229 27.839 61.44 79.366 85.874C356.291 904.918 431.486 920 512 920c80.514 0 155.71-15.082 210.634-41.126C774.16 854.44 802 823.229 802 793c0-26.985-22.094-54.79-64.119-78.063-9.663-5.351-13.158-17.523-7.807-27.185 5.352-9.663 17.523-13.159 27.186-7.807zM512 65c162.372 0 294 104 294 294 1.626 249.821-285.134 464-294 464-8.866 0-294.006-208.34-294.006-464 0-190 131.634-294 294.006-294z m0 40c-72.221 0-135.604 22.919-180.573 64.967-47.233 44.166-73.433 108.387-73.433 189.033 0 53.533 14.128 108.07 40.692 162.922 23.088 47.674 54.972 94.357 93.293 138.845 30.69 35.629 64.035 68.12 96.086 95.07l1.956 1.64 1.939 1.613 1.92 1.585 1.899 1.558 1.877 1.528 1.854 1.498 1.83 1.467 1.804 1.436 1.777 1.403 1.748 1.369 1.719 1.334 1.687 1.3 1.721 1.313 1.136-0.879 1.694-1.32 2.602-2.052 1.773-1.412 1.803-1.447 1.83-1.48 1.856-1.514 1.882-1.545 0.95-0.785 1.917-1.59 1.938-1.621 1.958-1.65 1.978-1.676 0.829-0.707c32.224-27.497 65.774-60.529 96.61-96.538 38.472-44.925 70.422-91.77 93.457-139.236 26.18-53.947 40.052-107.074 40.001-158.607L766 359c0-80.646-26.199-144.867-73.43-189.033C647.601 127.919 584.22 105 512 105z m0 128c60.751 0 110 49.249 110 110s-49.249 110-110 110-110-49.249-110-110 49.249-110 110-110z m0 40c-38.66 0-70 31.34-70 70s31.34 70 70 70 70-31.34 70-70-31.34-70-70-70z"  /></svg>