<?xml version="1.0" standalone="no"?><!DOCTYPE svg PUBLIC "-//W3C//DTD SVG 1.1//EN" "http://www.w3.org/Graphics/SVG/1.1/DTD/svg11.dtd"><svg class="icon" width="200px" height="200.00px" viewBox="0 0 1024 1024" version="1.1" xmlns="http://www.w3.org/2000/svg"><path fill="#333333" d="M512 111c108.259 0 196.225 86.884 197.973 194.726L710 309v23.457c0 11.046-8.954 20-20 20-10.93 0-19.813-8.768-19.997-19.655l-0.003-0.345V309c0-87.261-70.739-158-158-158-86.388 0-156.584 69.331-157.979 155.387L354 309v133h416c33.137 0 60 26.863 60 60v352c0 33.137-26.863 60-60 60H254c-33.137 0-60-26.863-60-60V502c0-33.137 26.863-60 60-60h60V309c0-109.352 88.648-198 198-198z m258.344 371H254c-10.93 0-19.813 8.769-20 19.656V854c0 10.93 8.769 19.813 19.656 20H770c10.93 0 19.813-8.769 20-19.656V502c0-10.93-8.769-19.813-19.656-20z"  /></svg>