<?xml version="1.0" standalone="no"?><!DOCTYPE svg PUBLIC "-//W3C//DTD SVG 1.1//EN" "http://www.w3.org/Graphics/SVG/1.1/DTD/svg11.dtd"><svg class="icon" width="200px" height="200.00px" viewBox="0 0 1024 1024" version="1.1" xmlns="http://www.w3.org/2000/svg"><path fill="#333333" d="M900 160c33.137 0 60 26.863 60 60v584c0 33.137-26.863 60-60 60H124c-33.137 0-60-26.863-60-60V220c0-33.137 26.863-60 60-60h776zM645.87 463.244l-66.48 60.639c-37.797 34.474-95.435 34.82-133.628 1.034l-1.151-1.034-66.482-60.639L104 713.277V804c0 10.93 8.769 19.813 19.656 20H900c10.93 0 19.813-8.769 20-19.656v-91.317h-0.278L645.87 463.244z m273.225-249.21l-243.547 222.14L920 659.141V220c0-2.078-0.317-4.082-0.905-5.966zM104 219.656V659.14l244.451-222.966-243.547-222.142a19.981 19.981 0 0 0-0.904 5.624zM875.123 200H148.874l322.692 294.33 0.691 0.62c22.687 20.069 56.808 20.067 79.493-0.006l0.684-0.614L875.123 200z"  /></svg>