<?xml version="1.0" standalone="no"?><!DOCTYPE svg PUBLIC "-//W3C//DTD SVG 1.1//EN" "http://www.w3.org/Graphics/SVG/1.1/DTD/svg11.dtd"><svg class="icon" width="200px" height="200.00px" viewBox="0 0 1024 1024" version="1.1" xmlns="http://www.w3.org/2000/svg"><path fill="#333333" d="M132 160h760c11.046 0 20 8.954 20 20s-8.954 20-20 20H132c-11.046 0-20-8.954-20-20s8.954-20 20-20z m0 332h760c11.046 0 20 8.954 20 20s-8.954 20-20 20H132c-11.046 0-20-8.954-20-20s8.954-20 20-20z m0 332h760c11.046 0 20 8.954 20 20s-8.954 20-20 20H132c-11.046 0-20-8.954-20-20s8.954-20 20-20z"  /></svg>