<?xml version="1.0" standalone="no"?><!DOCTYPE svg PUBLIC "-//W3C//DTD SVG 1.1//EN" "http://www.w3.org/Graphics/SVG/1.1/DTD/svg11.dtd"><svg class="icon" width="200px" height="200.00px" viewBox="0 0 1024 1024" version="1.1" xmlns="http://www.w3.org/2000/svg"><path fill="#333333" d="M512 112c110.457 0 200 98.945 200 221s-89.543 221-200 221-200-98.945-200-221 89.543-221 200-221z m0 40c-87.425 0-160 80.195-160 181s72.575 181 160 181 160-80.195 160-181-72.575-181-160-181z m196 448c86.156 0 156 69.844 156 156s-69.844 156-156 156H316c-86.156 0-156-69.844-156-156s69.844-156 156-156h392z m0 40H316c-64.065 0-116 51.935-116 116 0 63.424 50.901 114.96 114.082 115.984L316 872h392c64.065 0 116-51.935 116-116 0-63.424-50.901-114.96-114.082-115.984L708 640z"  /></svg>