<?xml version="1.0" standalone="no"?><!DOCTYPE svg PUBLIC "-//W3C//DTD SVG 1.1//EN" "http://www.w3.org/Graphics/SVG/1.1/DTD/svg11.dtd"><svg class="icon" width="200px" height="200.00px" viewBox="0 0 1024 1024" version="1.1" xmlns="http://www.w3.org/2000/svg"><path fill="#333333" d="M792 64c33.137 0 60 26.863 60 60v776c0 33.137-26.863 60-60 60H232c-33.137 0-60-26.863-60-60V124c0-33.137 26.863-60 60-60h560z m20 715H212v121c0 10.93 8.769 19.813 19.656 20H792c10.93 0 19.813-8.769 20-19.656V779z m-300 28c24.3 0 44 19.7 44 44s-19.7 44-44 44-44-19.7-44-44 19.7-44 44-44z m300-588H212v520h600V219z m-19.656-115H232c-10.93 0-19.813 8.769-20 19.656V179h600v-55c0-10.93-8.769-19.813-19.656-20zM602 130c5.523 0 10 4.477 10 10s-4.477 10-10 10H422c-5.523 0-10-4.477-10-10s4.477-10 10-10h180z"  /></svg>