<?xml version="1.0" standalone="no"?><!DOCTYPE svg PUBLIC "-//W3C//DTD SVG 1.1//EN" "http://www.w3.org/Graphics/SVG/1.1/DTD/svg11.dtd"><svg class="icon" width="200px" height="200.00px" viewBox="0 0 1024 1024" version="1.1" xmlns="http://www.w3.org/2000/svg"><path fill="#333333" d="M900 160c33.137 0 60 26.863 60 60v584c0 33.137-26.863 60-60 60H124c-33.137 0-60-26.863-60-60V220c0-33.137 26.863-60 60-60h776z m0.344 40H124c-10.93 0-19.813 8.769-20 19.656V804c0 10.93 8.769 19.813 19.656 20H900c10.93 0 19.813-8.769 20-19.656V220c0-10.93-8.769-19.813-19.656-20zM679.391 364.539a76 76 0 0 1 38.548 38.547L878.5 764h-43.877l-17.998-40h0.3L681.392 419.345a36 36 0 0 0-17.773-18.039l-0.486-0.22c-17.984-8.001-39.018-0.07-47.279 17.717l-0.246 0.542L525.3 622.342l-8.43 16.859a77 77 0 0 1-34.435 34.435c-37.656 18.828-83.364 3.906-102.727-33.3l-0.579-1.135-25.985-51.971a46 46 0 0 0-20.572-20.572c-22.496-11.248-49.802-2.333-61.37 19.894l-0.346 0.678-68.135 136.27h0.03l-20.082 40H138l97.08-194.159c21.24-42.482 72.898-59.701 115.38-38.46a86 86 0 0 1 38.46 38.46l25.986 51.971c9.139 18.278 31.364 25.686 49.64 16.547a37 37 0 0 0 16.548-16.547l8.025-16.052 89.942-202.174c17.061-38.35 61.98-55.608 100.33-38.547zM356 252c52.467 0 95 42.533 95 95s-42.533 95-95 95-95-42.533-95-95 42.533-95 95-95z m0 40c-30.376 0-55 24.624-55 55s24.624 55 55 55 55-24.624 55-55-24.624-55-55-55z"  /></svg>