<?xml version="1.0" standalone="no"?><!DOCTYPE svg PUBLIC "-//W3C//DTD SVG 1.1//EN" "http://www.w3.org/Graphics/SVG/1.1/DTD/svg11.dtd"><svg class="icon" width="200px" height="200.00px" viewBox="0 0 1024 1024" version="1.1" xmlns="http://www.w3.org/2000/svg"><path fill="#333333" d="M513 113l0.001 1.26C520.594 117.097 526 124.417 526 133v367.5h367.5c8.394 0 15.58 5.17 18.546 12.5H913l-0.023 2.938a20.06 20.06 0 0 1 0.523 4.562c0 1.825-0.245 3.594-0.703 5.274C906.055 740.777 729.64 913 513 913c-220.914 0-400-179.086-400-400 0-217.855 174.162-395.033 390.85-399.897l0.002 0.011a20.226 20.226 0 0 1 3.504-0.069L513 113z m-27.003 40.997C299.787 167.806 153 323.261 153 513c0 198.823 161.177 360 360 360 189.569 0 344.916-146.524 358.965-332.497L506.5 540.5a19.941 19.941 0 0 1-14.39-6.11A19.94 19.94 0 0 1 486 520l-0.003-366.003z m172.55-13.687C758.977 179.56 839.756 258.26 881.673 357.57c4.295 10.176-0.472 21.908-10.648 26.203-10.177 4.295-21.908-0.472-26.204-10.649-37.721-89.37-110.464-160.24-200.834-195.557-10.288-4.02-15.369-15.62-11.348-25.908 4.02-10.288 15.62-15.368 25.908-11.348z"  /></svg>