<?xml version="1.0" standalone="no"?><!DOCTYPE svg PUBLIC "-//W3C//DTD SVG 1.1//EN" "http://www.w3.org/Graphics/SVG/1.1/DTD/svg11.dtd"><svg class="icon" width="200px" height="200.00px" viewBox="0 0 1024 1024" version="1.1" xmlns="http://www.w3.org/2000/svg"><path fill="#333333" d="M512 64c247.424 0 448 200.576 448 448S759.424 960 512 960 64 759.424 64 512 264.576 64 512 64z m0 40c-225.332 0-408 182.668-408 408s182.668 408 408 408 408-182.668 408-408-182.668-408-408-408z m3.4 552.6c10.2 0 19.2 3 26.4 10.2 6.6 6.6 10.2 15 10.2 25.2 0 10.8-3.6 19.2-10.8 25.8-7.2 6.6-15.6 10.2-25.8 10.2-10.2 0-18.6-3.6-25.8-10.2-7.2-7.2-10.2-15.6-10.2-25.8 0-10.2 3-18.6 10.2-25.2 7.2-7.2 15.6-10.2 25.8-10.2z m9-365.4c38.4 0 69 10.2 92.4 31.8 22.2 20.4 33.6 48.6 33.6 84.6 0 27-7.8 50.4-22.8 70.2-6 7.2-22.2 22.8-48.6 46.2-13.2 11.4-22.2 22.2-28.2 33-7.8 13.2-11.4 27.6-11.4 43.8v13.8h-48v-13.8c0-19.8 3.6-37.2 10.8-52.2 8.4-18 28.2-40.8 60.6-69.6l0.521-0.521 1.535-1.535c8.572-8.579 15.006-15.093 18.344-19.544 12-15 18-30.6 18-47.4 0-24-7.2-42.6-20.4-55.8-13.8-14.4-33.6-21-58.8-21-30 0-52.2 9.6-66.6 29.4-13.2 16.8-19.8 39.6-19.8 69h-47.4c0-42 11.4-75.6 35.4-100.8 24-26.4 57.6-39.6 100.8-39.6z"  /></svg>