<?xml version="1.0" standalone="no"?><!DOCTYPE svg PUBLIC "-//W3C//DTD SVG 1.1//EN" "http://www.w3.org/Graphics/SVG/1.1/DTD/svg11.dtd"><svg class="icon" width="200px" height="200.00px" viewBox="0 0 1024 1024" version="1.1" xmlns="http://www.w3.org/2000/svg"><path fill="#333333" d="M512 112c148.43 0 281.952 81.597 351.167 208.303l18.74-69.94c2.716-10.136 13.135-16.15 23.27-13.435 10.136 2.716 16.151 13.134 13.436 23.27l-30.541 113.98c-2.687 10.026-12.911 16.02-22.943 13.52l-0.327-0.085-113.98-30.541c-10.135-2.716-16.15-13.134-13.435-23.27 2.716-10.136 13.135-16.151 23.27-13.435l66.726 17.874C764.894 224.903 645.111 152 512 152c-198.823 0-360 161.177-360 360s161.177 360 360 360c155.796 0 292.336-99.868 341.217-244.91l1.454-4.41c3.393-10.51 14.664-16.282 25.176-12.89 10.512 3.393 16.283 14.665 12.89 25.176C839.866 798.792 686.854 912 512 912c-220.914 0-400-179.086-400-400s179.086-400 400-400z"  /></svg>