<?xml version="1.0" standalone="no"?><!DOCTYPE svg PUBLIC "-//W3C//DTD SVG 1.1//EN" "http://www.w3.org/Graphics/SVG/1.1/DTD/svg11.dtd"><svg class="icon" width="200px" height="200.00px" viewBox="0 0 1024 1024" version="1.1" xmlns="http://www.w3.org/2000/svg"><path fill="#333333" d="M262.851498 348.460944c64.077216 0 116.021655 51.944439 116.021655 116.021655 0 51.437587-33.472841 95.056978-79.824483 110.26413l-0.010295 0.001583c33.186945 97.79398 110.567449 175.1729 208.347966 208.336087v-0.010295c15.058265-45.883595 57.957766-79.145776 108.721398-79.806268L617.648095 703.257541c64.077216 0 116.021655 51.944439 116.021655 116.021655 0 63.435731-50.910936 114.981816-114.102744 116.005816l-1.918911 0.015839a118.318329 118.318329 0 0 1-2.209559-0.020591l-1.10082-0.026135V935.300851C356.140036 935.300851 146.829843 725.926509 146.829843 467.650425c0-0.806212 0-1.611632 0.006335-2.417051L146.829843 464.482599c0-0.976483 0.011879-1.949797 0.03643-2.920737 0.100578-7.727913 0.387267-15.411477 0.855313-23.045939l0.147304-2.288755-0.001584 12.669723c7.537844-56.139434 55.224724-99.560043 113.223672-100.422484L262.851498 348.460944z m0 31.678267c-41.934107 0-77.294973 30.799196-83.411255 71.729893l-0.175814 1.243372-0.51794-0.034846-0.055437 1.775567a448.578524 448.578524 0 0 0-0.112458 4.746197l-0.039597 2.561188-0.004752 0.183734c-0.011087 0.474382-0.019007 0.948764-0.026135 1.42473v0.662867l0.007128 0.752359-0.001584 0.209869c-0.005544 0.752359-0.005544 1.503926-0.005544 2.256284 0 231.151567 179.831189 420.283496 407.174237 435.045569l2.272124 0.128297 27.270236 0.764238c0.536947 0.015839 1.075477 0.025343 1.614008 0.034054h0.80938c46.581309 0 84.343387-37.762079 84.343387-84.343387S664.229403 734.935808 617.648095 734.935808c-35.620628 0-66.962314 22.287245-79.092715 54.955459l-0.110082 0.302527-4.176779 35.458277-37.057238-12.568353C391.17224 777.120173 307.090198 693.742181 270.145419 588.134756l-1.10478-3.206632-11.753429-34.634642 33.718348-6.273089 0.21462-0.074444c32.883626-11.730462 55.509036-42.82981 55.96758-78.363323L347.194885 464.482599c0-46.581309-37.762079-84.343387-84.343387-84.343388z m266.639938-78.836121c71.580213 5.749606 138.1711 39.481417 185.260844 95.601052 47.655994 56.79359 69.248693 129.264755 61.729857 201.552978-0.904415 8.700436-8.691725 15.020251-17.392161 14.115044-8.701228-0.904415-15.021043-8.691725-14.115836-17.392161 6.639765-63.838837-12.406794-127.761621-54.488205-177.91307-41.58327-49.55669-100.318738-79.308919-163.531136-84.387737-8.719443-0.70009-15.220616-8.336928-14.519734-17.056372 0.70009-8.719443 8.336928-15.220616 17.056371-14.519734z m-11.013742 96.076226c47.157853 2.894602 91.28172 24.711425 122.26069 61.63007 31.291793 37.292449 45.071047 85.110794 39.300851 132.486435-1.057262 8.683805-8.954654 14.865819-17.637668 13.808556-8.683805-1.058054-14.865027-8.954654-13.807765-17.637667 4.720062-38.754401-6.530475-77.79549-32.121763-108.294534-25.33707-30.194933-61.360804-48.006039-99.935431-50.373989-8.731323-0.536155-15.375047-8.048656-14.838892-16.779978 0.536155-8.731323 8.048656-15.375047 16.779978-14.838893z m-0.065732 92.225733c20.127579 2.617417 38.639567 12.589735 51.952359 28.455004 14.043768 16.738005 20.606713 38.017881 18.789964 59.35557-0.742855 8.716275-8.41058 15.180226-17.126855 14.43737-8.615697-0.733352-15.031338-8.233974-14.460338-16.825912l0.022967-0.300151c1.113491-13.074413-2.888266-26.049039-11.492875-36.303295-8.041528-9.58426-19.12021-15.627681-31.242692-17.333556l-0.527443-0.071276c-8.674302-1.127746-14.792167-9.07424-13.664421-17.749334 1.127746-8.674302 9.07424-14.792167 17.749334-13.66442zM614.337716 0c10.556783 0 21.03041 0.350045 31.41217 1.039047h-62.82434a474.108832 474.108832 0 0 1 29.151925-1.033503l2.260245-0.005544z"  /></svg>