<?xml version="1.0" standalone="no"?><!DOCTYPE svg PUBLIC "-//W3C//DTD SVG 1.1//EN" "http://www.w3.org/Graphics/SVG/1.1/DTD/svg11.dtd"><svg class="icon" width="200px" height="200.00px" viewBox="0 0 1024 1024" version="1.1" xmlns="http://www.w3.org/2000/svg"><path fill="#333333" d="M770.657 771.157c7.81-7.81 20.474-7.81 28.284 0l106.066 106.066c7.81 7.81 7.81 20.474 0 28.284-7.81 7.81-20.473 7.81-28.284 0L770.657 799.441c-7.81-7.81-7.81-20.473 0-28.284zM216.993 217.493c139.026-139.027 364.433-139.027 503.46 0 137.636 137.636 139.012 359.933 4.129 499.263l-4.13 4.197c-139.026 139.026-364.433 139.026-503.46 0C79.357 583.316 77.98 361.019 212.864 221.689l4.13-4.196z m28.312 28.256l-3.761 3.823-3.5 3.675c-115.083 122.76-113.616 314.69 3.608 435.738l3.625 3.683c122.171 122.172 319.492 123.394 443.166 3.665l3.653-3.594 3.804-3.866 3.502-3.675c115.082-122.76 113.615-314.69-3.609-435.738l-3.625-3.683c-122.171-122.172-319.492-123.394-443.166-3.665l-3.697 3.637z"  /></svg>