<?xml version="1.0" standalone="no"?><!DOCTYPE svg PUBLIC "-//W3C//DTD SVG 1.1//EN" "http://www.w3.org/Graphics/SVG/1.1/DTD/svg11.dtd"><svg class="icon" width="200px" height="200.00px" viewBox="0 0 1024 1024" version="1.1" xmlns="http://www.w3.org/2000/svg"><path fill="#333333" d="M603.348 73c55.643 11.581 107.501 33.484 153.481 63.615l-0.01 0.008c-24.22 29.194-17.18 78.344 17.114 112.636 33.95 33.95 82.461 41.19 111.754 17.832l0.89-0.727c30.132 45.98 52.034 97.838 63.615 153.48l-0.012 0.001c-37.788 3.493-67.584 43.237-67.584 91.751 0 48.03 29.203 87.462 66.453 91.635l1.143 0.117c-11.58 55.643-33.483 107.5-63.614 153.48l-0.01-0.01c-29.194-24.219-78.343-17.178-112.635 17.115-34.293 34.292-41.334 83.441-17.115 112.635l0.01 0.01c-45.98 30.13-97.837 52.033-153.48 63.614l-0.001-0.012c-3.493-37.788-43.237-67.584-91.75-67.584-48.03 0-87.463 29.203-91.636 66.453l-0.117 1.143c-55.642-11.58-107.5-33.483-153.48-63.614l0.01-0.01c24.22-29.193 17.178-78.342-17.115-112.635-34.292-34.293-83.442-41.334-112.636-17.114l-0.008 0.01C106.484 710.85 84.581 658.991 73 603.35l0.012-0.002c37.787-3.493 67.584-43.236 67.584-91.75 0-48.03-29.204-87.464-66.453-91.636L73 419.844c11.58-55.643 33.484-107.5 63.615-153.48l0.008 0.01c29.194 24.22 78.344 17.178 112.636-17.115 34.293-34.292 41.334-83.442 17.114-112.636l-0.01-0.008c45.98-30.131 97.838-52.034 153.481-63.615l0.001 0.012c3.493 37.787 43.237 67.584 91.751 67.584 48.27 0 87.857-29.497 91.695-67.013l0.057-0.583z m25.119 47.57l-0.918 1.47c-22.743 35.704-67.036 58.556-115.953 58.556-49.204 0-93.71-23.12-116.33-59.148l-0.542-0.878-1.098 0.33a405.197 405.197 0 0 0-74.997 31.114l-0.882 0.476 0.242 1.02c9.327 40.893-5.257 87.947-39.027 122.597l-1.418 1.437c-34.779 34.778-82.573 49.902-124.035 40.445l-1.019-0.242-0.476 0.882a405.197 405.197 0 0 0-31.114 74.997l-0.329 1.098 0.877 0.541c35.534 22.312 58.512 65.912 59.135 114.312l0.013 2.02c0 49.203-23.12 93.708-59.148 116.33l-0.877 0.54 0.33 1.1a405.197 405.197 0 0 0 31.113 74.996l0.476 0.881 1.02-0.24c40.893-9.328 87.947 5.256 122.597 39.026l1.437 1.418c34.778 34.779 49.902 82.574 40.445 124.035l-0.242 1.018 0.883 0.478a405.197 405.197 0 0 0 74.997 31.113l1.097 0.329 0.542-0.877c22.311-35.534 65.911-58.512 114.31-59.135l2.02-0.013c49.204 0 93.709 23.12 116.33 59.148l0.541 0.877 1.1-0.329a405.197 405.197 0 0 0 74.996-31.114l0.881-0.476-0.241-1.02c-9.327-40.894 5.258-87.948 39.027-122.597l1.418-1.437c34.778-34.777 82.572-49.901 124.033-40.445l1.021 0.241 0.476-0.881a405.197 405.197 0 0 0 31.114-74.997l0.329-1.099-0.877-0.54c-35.534-22.312-58.512-65.912-59.135-114.312l-0.013-2.019c0-49.204 23.12-93.709 59.148-116.33l0.877-0.542-0.329-1.097a405.197 405.197 0 0 0-31.113-74.997l-0.478-0.883-1.018 0.242c-40.893 9.327-87.948-5.257-122.598-39.027l-1.437-1.418c-34.778-34.779-49.902-82.573-40.445-124.035l0.241-1.019-0.88-0.476a405.197 405.197 0 0 0-74.998-31.114l-1.099-0.33zM512 322c104.087 0 190 85.913 190 190s-85.913 190-190 190-190-85.913-190-190 85.913-190 190-190z m0 40c-81.996 0-150 68.004-150 150s68.004 150 150 150 150-68.004 150-150-68.004-150-150-150z"  /></svg>