<?xml version="1.0" standalone="no"?><!DOCTYPE svg PUBLIC "-//W3C//DTD SVG 1.1//EN" "http://www.w3.org/Graphics/SVG/1.1/DTD/svg11.dtd"><svg class="icon" width="200px" height="200.00px" viewBox="0 0 1024 1024" version="1.1" xmlns="http://www.w3.org/2000/svg"><path fill="#333333" d="M607 396.827v-184c0-11.046 8.954-20 20-20s20 8.954 20 20v135.716l229.685-229.685c7.81-7.81 20.474-7.81 28.284 0 7.81 7.81 7.81 20.474 0 28.284L675.283 376.83 811 376.827c11.046 0 20 8.954 20 20s-8.954 20-20 20H627c-11.046 0-20-8.954-20-20z m-190.173 0v-184c0-11.046-8.954-20-20-20s-20 8.954-20 20v135.716L147.142 118.858c-7.81-7.81-20.474-7.81-28.284 0-7.81 7.81-7.81 20.474 0 28.284L348.544 376.83l-135.717-0.002c-11.046 0-20 8.954-20 20s8.954 20 20 20h184c11.046 0 20-8.954 20-20zM607 628v184c0 11.046 8.954 20 20 20s20-8.954 20-20V676.284l229.685 229.685c7.81 7.81 20.474 7.81 28.284 0 7.81-7.81 7.81-20.474 0-28.284L675.283 647.998 811 648c11.046 0 20-8.954 20-20s-8.954-20-20-20H627c-11.046 0-20 8.954-20 20z m-190.173 0v184c0 11.046-8.954 20-20 20s-20-8.954-20-20V676.284L147.142 905.969c-7.81 7.81-20.474 7.81-28.284 0-7.81-7.81-7.81-20.474 0-28.284l229.686-229.687-135.717 0.002c-11.046 0-20-8.954-20-20s8.954-20 20-20h184c11.046 0 20 8.954 20 20z"  /></svg>