<?xml version="1.0" standalone="no"?><!DOCTYPE svg PUBLIC "-//W3C//DTD SVG 1.1//EN" "http://www.w3.org/Graphics/SVG/1.1/DTD/svg11.dtd"><svg class="icon" width="200px" height="200.00px" viewBox="0 0 1024 1024" version="1.1" xmlns="http://www.w3.org/2000/svg"><path fill="#333333" d="M375.202 111c11.045 0 20 8.954 20 20v760c0 7.201-3.806 13.513-9.516 17.035-8.45 6.583-20.662 5.344-27.604-2.929l-240.402-286.5c-7.1-8.462-5.997-21.077 2.465-28.177 8.461-7.1 21.076-5.997 28.176 2.465l206.88 246.55V131c0-11.046 8.955-20 20-20zM649 912.25c-11.046 0-20-8.953-20-20v-760c0-7.2 3.806-13.513 9.516-17.034 8.45-6.583 20.662-5.344 27.604 2.929l240.402 286.5c7.1 8.462 5.997 21.077-2.465 28.177-8.461 7.1-21.077 5.996-28.177-2.465L669 183.807V892.25c0 11.046-8.954 20-20 20z"  /></svg>