<?xml version="1.0" standalone="no"?><!DOCTYPE svg PUBLIC "-//W3C//DTD SVG 1.1//EN" "http://www.w3.org/Graphics/SVG/1.1/DTD/svg11.dtd"><svg class="icon" width="200px" height="200.00px" viewBox="0 0 1024 1024" version="1.1" xmlns="http://www.w3.org/2000/svg"><path fill="#333333" d="M715 267c135.31 0 245 109.69 245 245S850.31 757 715 757H309C173.69 757 64 647.31 64 512s109.69-245 245-245h406z m0 40H309c-113.218 0-205 91.782-205 205 0 112.086 89.955 203.162 201.61 204.973L309 717h406c113.218 0 205-91.782 205-205 0-112.086-89.955-203.162-201.61-204.973L715 307z m0 60c80.081 0 145 64.919 145 145s-64.919 145-145 145-145-64.919-145-145 64.919-145 145-145z m0 40c-57.99 0-105 47.01-105 105s47.01 105 105 105 105-47.01 105-105-47.01-105-105-105z"  /></svg>