<?xml version="1.0" standalone="no"?><!DOCTYPE svg PUBLIC "-//W3C//DTD SVG 1.1//EN" "http://www.w3.org/Graphics/SVG/1.1/DTD/svg11.dtd"><svg class="icon" width="200px" height="200.00px" viewBox="0 0 1024 1024" version="1.1" xmlns="http://www.w3.org/2000/svg"><path fill="#333333" d="M467 457h90c5.523 0 10 4.477 10 10v90.719c0 5.523-4.477 10-10 10h-90c-5.523 0-10-4.477-10-10V467c0-5.523 4.477-10 10-10z m-345 0h90c5.523 0 10 4.477 10 10v90c0 5.523-4.477 10-10 10h-90c-5.523 0-10-4.477-10-10v-90c0-5.523 4.477-10 10-10z m690 0h90c5.523 0 10 4.477 10 10v90.719c0 5.523-4.477 10-10 10h-90c-5.523 0-10-4.477-10-10V467c0-5.523 4.477-10 10-10z"  /></svg>