<?xml version="1.0" standalone="no"?><!DOCTYPE svg PUBLIC "-//W3C//DTD SVG 1.1//EN" "http://www.w3.org/Graphics/SVG/1.1/DTD/svg11.dtd"><svg class="icon" width="200px" height="200.00px" viewBox="0 0 1024 1024" version="1.1" xmlns="http://www.w3.org/2000/svg"><path fill="#333333" d="M812 112c55.228 0 100 44.772 100 100v600c0 55.228-44.772 100-100 100H212c-55.228 0-100-44.772-100-100V212c0-55.228 44.772-100 100-100h600z m0 40H212c-32.806 0-59.462 26.328-59.992 59.008L152 212v600c0 32.806 26.328 59.462 59.008 59.992L212 872h600c32.806 0 59.462-26.328 59.992-59.008L872 812V212c0-32.806-26.328-59.462-59.008-59.992L812 152z m-86.454 244.46c7.81 7.811 7.81 20.475 0 28.285l-258.8 258.801c-7.811 7.81-20.475 7.81-28.285 0L298.454 543.54c-7.81-7.81-7.81-20.474 0-28.284 7.81-7.81 20.474-7.81 28.284 0L452.603 641.12l244.659-244.66c7.81-7.81 20.474-7.81 28.284 0z"  /></svg>