<?xml version="1.0" standalone="no"?><!DOCTYPE svg PUBLIC "-//W3C//DTD SVG 1.1//EN" "http://www.w3.org/Graphics/SVG/1.1/DTD/svg11.dtd"><svg class="icon" width="200px" height="200.00px" viewBox="0 0 1024 1024" version="1.1" xmlns="http://www.w3.org/2000/svg"><path fill="#333333" d="M180 896h664c11.046 0 20-8.954 20-20s-8.954-20-20-20H180c-11.046 0-20 8.954-20 20s8.954 20 20 20z m332.404-768a19.935 19.935 0 0 1 13.966 5.857 20.2 20.2 0 0 1 1.636 1.849l299.378 299.379c7.81 7.81 7.81 20.473 0 28.284-7.81 7.81-20.474 7.81-28.284 0L532 196.269V715c0 10.93-8.769 19.813-19.656 19.997L512 735c-11.046 0-20-8.954-20-20V196.511L225.142 463.369c-7.72 7.72-20.183 7.81-28.013 0.266l-0.271-0.266c-7.81-7.81-7.81-20.474 0-28.284l299.378-299.379a20.2 20.2 0 0 1 1.636-1.849A19.935 19.935 0 0 1 511.838 128z"  /></svg>