<?xml version="1.0" standalone="no"?><!DOCTYPE svg PUBLIC "-//W3C//DTD SVG 1.1//EN" "http://www.w3.org/Graphics/SVG/1.1/DTD/svg11.dtd"><svg class="icon" width="200px" height="200.00px" viewBox="0 0 1024 1024" version="1.1" xmlns="http://www.w3.org/2000/svg"><path fill="#333333" d="M132 539c10.93 0 19.813 8.769 19.997 19.656L152 559v217.08c0 38.274 30.716 69.373 68.842 69.991l1.158 0.01h580c38.273 0 69.372-30.717 69.99-68.843l0.01-1.157V562.829c0-11.046 8.954-20 20-20 10.93 0 19.813 8.768 20 19.655v213.597c0 60.143-48.269 109.014-108.18 109.985l-1.82 0.015H222c-60.144 0-109.014-48.269-109.985-108.181l-0.015-1.82V559c0-11.046 8.954-20 20-20z m380.25-402a19.935 19.935 0 0 1 13.965 5.857 20.2 20.2 0 0 1 1.633 1.844l244.227 244.23c7.81 7.81 7.81 20.473 0 28.284-7.81 7.81-20.474 7.81-28.284 0L532 205.424V633c0 11.046-8.954 20-20 20s-20-8.954-20-20V205.356L280.142 417.215c-7.81 7.81-20.474 7.81-28.284 0-7.81-7.811-7.81-20.474 0-28.285l244.224-244.224a20.2 20.2 0 0 1 1.636-1.849A19.935 19.935 0 0 1 511.683 137h0.567z"  /></svg>