<?xml version="1.0" standalone="no"?><!DOCTYPE svg PUBLIC "-//W3C//DTD SVG 1.1//EN" "http://www.w3.org/Graphics/SVG/1.1/DTD/svg11.dtd"><svg class="icon" width="200px" height="200.00px" viewBox="0 0 1024 1024" version="1.1" xmlns="http://www.w3.org/2000/svg"><path fill="#333333" d="M652.566 598.29c73.861 60.046 119.568 148.596 124.411 245.236 0.487 9.703-6.966 17.964-16.645 18.451-9.679 0.488-17.92-6.983-18.406-16.685-4.338-86.565-45.269-165.862-111.466-219.677-7.527-6.12-8.68-17.197-2.576-24.743 6.104-7.545 17.155-8.702 24.682-2.582zM441.5 161C551.129 161 640 249.871 640 359.5c0 109.094-88.007 197.632-196.897 198.494-0.755 0.107-1.525 0.171-2.308 0.184l-0.302 0.003c-159.25 0-290.596 123.964-301.138 282.049l-0.282 4.8c-0.495 9.703-8.742 17.166-18.42 16.67-9.679-0.495-17.124-8.762-16.63-18.465 7.451-146.188 107.325-267.131 241.466-306.605l4.06-1.167-1.878-0.995C285.363 500.984 243 435.189 243 359.5 243 249.871 331.871 161 441.5 161z m366.454 413.739c66.508 54.024 107.665 133.692 112.026 220.64 0.438 8.73-6.273 16.162-14.988 16.6-8.716 0.44-16.136-6.282-16.574-15.012-3.906-77.882-40.762-149.226-100.37-197.644-6.777-5.506-7.816-15.472-2.319-22.261s15.447-7.829 22.225-2.323zM617.5 181c98.583 0 178.5 79.917 178.5 178.5 0 88.882-64.963 162.59-149.998 176.237l-0.001-32.093c67.494-13.269 118.406-72.76 118.406-144.144 0-71.782-51.482-131.539-119.538-144.362a243.28 243.28 0 0 0-30.966-34.1A166.01 166.01 0 0 1 617.5 181z m-176 15.133c-90.225 0-163.367 73.142-163.367 163.367S351.275 522.867 441.5 522.867 604.867 449.725 604.867 359.5 531.725 196.133 441.5 196.133z"  /></svg>