<?xml version="1.0" standalone="no"?><!DOCTYPE svg PUBLIC "-//W3C//DTD SVG 1.1//EN" "http://www.w3.org/Graphics/SVG/1.1/DTD/svg11.dtd"><svg class="icon" width="200px" height="200.00px" viewBox="0 0 1024 1024" version="1.1" xmlns="http://www.w3.org/2000/svg"><path fill="#333333" d="M753.23 611.603c84.184 68.27 136.279 168.95 141.799 278.828 0.554 11.032-7.94 20.424-18.971 20.978-11.032 0.554-20.425-7.94-20.979-18.971-4.944-98.422-51.595-188.58-127.044-249.768-8.58-6.957-9.894-19.552-2.936-28.131 6.957-8.58 19.552-9.894 28.131-2.936zM511.52 113c124.816 0 226 101.184 226 226 0 122.624-97.662 222.439-219.447 225.907a20.105 20.105 0 0 1-6.21 1.09l-0.344 0.003c-181.505 0-331.207 140.944-343.223 320.683l-0.322 5.458c-0.563 11.031-9.963 19.517-20.994 18.953-11.031-0.563-19.517-9.963-18.953-20.994 8.584-168.022 124.815-306.714 280.22-350.036l0.001 0.014C335.368 502.573 285.52 426.608 285.52 339c0-124.816 101.184-226 226-226z m0 40c-102.726 0-186 83.275-186 186s83.274 186 186 186c102.724 0 186-83.275 186-186s-83.276-186-186-186z"  /></svg>