<?xml version="1.0" standalone="no"?><!DOCTYPE svg PUBLIC "-//W3C//DTD SVG 1.1//EN" "http://www.w3.org/Graphics/SVG/1.1/DTD/svg11.dtd"><svg class="icon" width="200px" height="200.00px" viewBox="0 0 1024 1024" version="1.1" xmlns="http://www.w3.org/2000/svg"><path fill="#333333" d="M793.79 236.105c8.779-6.703 21.33-5.02 28.033 3.76 58.746 76.944 91.096 170.946 91.096 269.808 0 101.187-33.896 197.257-95.206 275.108-6.834 8.678-19.408 10.173-28.086 3.339-8.678-6.834-10.173-19.409-3.339-28.087 55.804-70.86 86.63-158.231 86.63-250.36 0-90.012-29.42-175.504-82.888-245.535-6.703-8.78-5.02-21.33 3.76-28.033z m-100.055 92.42c9.1-6.26 21.552-3.96 27.813 5.14 35.035 50.92 54.092 111.256 54.092 174.389 0 66.372-21.069 129.617-59.513 182.017-6.534 8.906-19.05 10.83-27.956 4.295-8.906-6.534-10.83-19.05-4.295-27.956 33.451-45.595 51.764-100.567 51.764-158.356 0-54.971-16.564-107.414-47.045-151.715-6.261-9.1-3.96-21.553 5.14-27.814zM549.825 176.27A51 51 0 0 1 563.48 211v602.848c0 28.166-22.834 51-51 51a51 51 0 0 1-34.732-13.655L310.209 695.382l0.005-0.015-134.214 0.001c-35.54 0-64.417-28.522-64.991-63.925l-0.009-1.075v-236c0-35.54 28.522-64.417 63.925-64.991l1.075-0.009 134.313-0.001 167.435-155.713c20.626-19.181 52.896-18.011 72.078 2.615z m-44.604 26.466l-0.232 0.21-177.78 165.334 0.412 1.089H176c-13.669 0-24.776 10.97-24.997 24.587l-0.003 0.413v236c0 13.669 10.97 24.776 24.587 24.997l0.413 0.003 149.558-0.001 0.096-0.247 0.265 0.247h1.287l-0.328 0.892 178.11 165.644a11 11 0 0 0 7.492 2.945c5.978 0 10.843-4.77 10.996-10.712l0.004-0.288V211a11 11 0 0 0-2.945-7.49c-4.066-4.373-10.859-4.692-15.314-0.775z"  /></svg>