<?xml version="1.0" standalone="no"?><!DOCTYPE svg PUBLIC "-//W3C//DTD SVG 1.1//EN" "http://www.w3.org/Graphics/SVG/1.1/DTD/svg11.dtd"><svg class="icon" width="200px" height="200.00px" viewBox="0 0 1024 1024" version="1.1" xmlns="http://www.w3.org/2000/svg"><path fill="#333333" d="M395 152c157.78 0 289.648 97.653 313.981 226.85a316.84 316.84 0 0 0-2.954-0.305C841.15 391.857 947 489.705 947 610c0 67.746-33.913 130.415-91.195 174.03l-1.743 1.316-0.045 0.033 14.437 61.4c2.487 10.578-3.881 21.17-14.288 23.996l-0.338 0.088-0.34 0.083a20.1 20.1 0 0 1-10.914-0.484l-0.458-0.157L744.28 835.3l-1.95 0.434c-20.893 4.57-42.47 7.017-64.398 7.248l-1.78 0.014-1.651 0.004c-116.822 0-217.148-62.928-255.67-152.05l0.124 0.288A374.09 374.09 0 0 1 395 692c-33.846 0-66.989-4.488-98.518-13.19l-1.602-0.446-1.348-0.383-110.831 60.32a20.1 20.1 0 0 1-15.075 1.689l-0.444-0.131-0.43-0.138a20.097 20.097 0 0 1-13.662-17.097l-0.035-0.385-0.16-2.01 0.493-4.024L184 624.09l-0.732-0.548C117.835 573.999 78.632 503.356 77.05 426.82l-0.036-2.321L77 422c0-149.97 143.075-270 318-270z m279.5 265C545.412 417 442 504.234 442 610s103.412 193 232.5 193c22.15 0 43.867-2.574 64.709-7.588l1.452-0.354 5.851-1.442 74.629 26.701-12.312-52.367 11.502-7.71C874.938 723.633 907 668.83 907 610c0-105.766-103.412-193-232.5-193zM395 192c-154.237 0-278 103.828-278 230 0 68.807 36.899 132.956 99.948 176.55l1.918 1.316 12.514 8.498-23.495 70.691 81.263-44.226 8.077 2.516C328.198 646.993 361.17 652 395 652c3.803 0 7.588-0.063 11.353-0.188A202.22 202.22 0 0 1 402 610c0-128.158 120.14-230.84 267.823-232.966l-2.16 0.038C642.427 272.096 530.467 192 395 192z m203 320c17.673 0 32 14.327 32 32 0 17.673-14.327 32-32 32-17.673 0-32-14.327-32-32 0-17.673 14.327-32 32-32z m161 0c17.673 0 32 14.327 32 32 0 17.673-14.327 32-32 32-17.673 0-32-14.327-32-32 0-17.673 14.327-32 32-32zM288 299c22.091 0 40 17.909 40 40s-17.909 40-40 40-40-17.909-40-40 17.909-40 40-40z m207 0c22.091 0 40 17.909 40 40s-17.909 40-40 40-40-17.909-40-40 17.909-40 40-40z"  /></svg>